<svg width="63" height="66" viewBox="0 0 63 66" fill="none" xmlns="http://www.w3.org/2000/svg">
<path d="M3.78 63.4493C3.78 64.8601 4.90613 66 6.3 66H28.8225V36.029H3.78V63.4493ZM34.1775 66H56.7C58.0939 66 59.22 64.8601 59.22 63.4493V36.029H34.1775V66ZM60.48 16.8986H48.8565C49.9275 15.1928 50.5575 13.1681 50.5575 11C50.5575 4.93406 45.6829 0 39.69 0C36.4297 0 33.4924 1.46667 31.5 3.77826C29.5076 1.46667 26.5702 0 23.31 0C17.3171 0 12.4425 4.93406 12.4425 11C12.4425 13.1681 13.0646 15.1928 14.1435 16.8986H2.52C1.12612 16.8986 0 18.0384 0 19.4493V30.6087H28.8225V16.8986H34.1775V30.6087H63V19.4493C63 18.0384 61.8739 16.8986 60.48 16.8986ZM28.8225 16.5797H23.31C20.2703 16.5797 17.7975 14.0768 17.7975 11C17.7975 7.92319 20.2703 5.42029 23.31 5.42029C26.3498 5.42029 28.8225 7.92319 28.8225 11V16.5797ZM39.69 16.5797H34.1775V11C34.1775 7.92319 36.6502 5.42029 39.69 5.42029C42.7297 5.42029 45.2025 7.92319 45.2025 11C45.2025 14.0768 42.7297 16.5797 39.69 16.5797Z" fill="#EFC940"/>
</svg>
